<?xml version="1.0" encoding="UTF-8" standalone="no"?>
<!DOCTYPE svg PUBLIC "-//W3C//DTD SVG 1.1//EN"
 "http://www.w3.org/Graphics/SVG/1.1/DTD/svg11.dtd">
<!-- Generated by graphviz version 7.0.0 (20221106.0651)
 -->
<!-- Pages: 1 -->
<svg width="993pt" height="564pt"
 viewBox="0.00 0.00 992.60 564.20" xmlns="http://www.w3.org/2000/svg" xmlns:xlink="http://www.w3.org/1999/xlink">
<g id="graph0" class="graph" transform="scale(1 1) rotate(0) translate(4 560.2)">
<polygon fill="white" stroke="none" points="-4,4 -4,-560.2 988.6,-560.2 988.6,4 -4,4"/>
<text text-anchor="middle" x="492.3" y="-539.6" font-family="Arial" font-size="14.00">Open a smart physical safe</text>
<!-- reality -->
<g id="node1" class="node">
<title>reality</title>
<path fill="#272727" stroke="none" d="M654.6,-531.3C654.6,-531.3 608.01,-531.3 608.01,-531.3 602.01,-531.3 596.01,-525.3 596.01,-519.3 596.01,-519.3 596.01,-498.7 596.01,-498.7 596.01,-492.7 602.01,-486.7 608.01,-486.7 608.01,-486.7 654.6,-486.7 654.6,-486.7 660.6,-486.7 666.6,-492.7 666.6,-498.7 666.6,-498.7 666.6,-519.3 666.6,-519.3 666.6,-525.3 660.6,-531.3 654.6,-531.3"/>
<text text-anchor="middle" x="631.3" y="-504.8" font-family="Arial" font-size="14.00" fill="#ffffff">Reality</text>
</g>
<!-- careless -->
<g id="node2" class="node">
<title>careless</title>
<path fill="#d2d5dd" stroke="none" d="M387.58,-440.7C387.58,-440.7 251.03,-440.7 251.03,-440.7 245.03,-440.7 239.03,-434.7 239.03,-428.7 239.03,-428.7 239.03,-408.1 239.03,-408.1 239.03,-402.1 245.03,-396.1 251.03,-396.1 251.03,-396.1 387.58,-396.1 387.58,-396.1 393.58,-396.1 399.58,-402.1 399.58,-408.1 399.58,-408.1 399.58,-428.7 399.58,-428.7 399.58,-434.7 393.58,-440.7 387.58,-440.7"/>
<text text-anchor="middle" x="319.3" y="-414.2" font-family="Arial" font-size="14.00">Humans are careless</text>
</g>
<!-- reality&#45;&gt;careless -->
<g id="edge27" class="edge">
<title>reality&#45;&gt;careless</title>
<path fill="none" stroke="#2b303a" d="M596.05,-502.28C551.27,-494.53 471.92,-479.13 406.3,-457.6 395.49,-454.05 384.18,-449.64 373.44,-445.09"/>
<polygon fill="#2b303a" stroke="#2b303a" points="374.87,-441.9 364.31,-441.12 372.08,-448.32 374.87,-441.9"/>
</g>
<!-- physical -->
<g id="node3" class="node">
<title>physical</title>
<path fill="#d2d5dd" stroke="none" d="M553.05,-449C553.05,-449 425.56,-449 425.56,-449 419.56,-449 413.56,-443 413.56,-437 413.56,-437 413.56,-399.8 413.56,-399.8 413.56,-393.8 419.56,-387.8 425.56,-387.8 425.56,-387.8 553.05,-387.8 553.05,-387.8 559.05,-387.8 565.05,-393.8 565.05,-399.8 565.05,-399.8 565.05,-437 565.05,-437 565.05,-443 559.05,-449 553.05,-449"/>
<text text-anchor="middle" x="489.3" y="-422.6" font-family="Arial" font-size="14.00">Locks are not 100%</text>
<text text-anchor="middle" x="489.3" y="-405.8" font-family="Arial" font-size="14.00">secure</text>
</g>
<!-- reality&#45;&gt;physical -->
<g id="edge28" class="edge">
<title>reality&#45;&gt;physical</title>
<path fill="none" stroke="#2b303a" d="M597.29,-486.78C581.99,-477.23 563.51,-465.7 546.2,-454.9"/>
<polygon fill="#2b303a" stroke="#2b303a" points="548.35,-452.12 538.01,-449.79 544.64,-458.05 548.35,-452.12"/>
</g>
<!-- software -->
<g id="node4" class="node">
<title>software</title>
<path fill="#d2d5dd" stroke="none" d="M671.57,-457.8C671.57,-457.8 591.04,-457.8 591.04,-457.8 585.04,-457.8 579.04,-451.8 579.04,-445.8 579.04,-445.8 579.04,-391 579.04,-391 579.04,-385 585.04,-379 591.04,-379 591.04,-379 671.57,-379 671.57,-379 677.57,-379 683.57,-385 683.57,-391 683.57,-391 683.57,-445.8 683.57,-445.8 683.57,-451.8 677.57,-457.8 671.57,-457.8"/>
<text text-anchor="middle" x="631.3" y="-431" font-family="Arial" font-size="14.00">Unprotected</text>
<text text-anchor="middle" x="631.3" y="-414.2" font-family="Arial" font-size="14.00">debugging</text>
<text text-anchor="middle" x="631.3" y="-397.4" font-family="Arial" font-size="14.00">interface</text>
</g>
<!-- reality&#45;&gt;software -->
<g id="edge29" class="edge">
<title>reality&#45;&gt;software</title>
<path fill="none" stroke="#2b303a" d="M631.3,-487C631.3,-481.5 631.3,-475.33 631.3,-469.01"/>
<polygon fill="#2b303a" stroke="#2b303a" points="634.8,-469.11 631.3,-459.11 627.8,-469.11 634.8,-469.11"/>
</g>
<!-- network -->
<g id="node5" class="node">
<title>network</title>
<path fill="#d2d5dd" stroke="none" d="M825.06,-440.7C825.06,-440.7 709.55,-440.7 709.55,-440.7 703.55,-440.7 697.55,-434.7 697.55,-428.7 697.55,-428.7 697.55,-408.1 697.55,-408.1 697.55,-402.1 703.55,-396.1 709.55,-396.1 709.55,-396.1 825.06,-396.1 825.06,-396.1 831.06,-396.1 837.06,-402.1 837.06,-408.1 837.06,-408.1 837.06,-428.7 837.06,-428.7 837.06,-434.7 831.06,-440.7 825.06,-440.7"/>
<text text-anchor="middle" x="767.3" y="-414.2" font-family="Arial" font-size="14.00">Wireless interface</text>
</g>
<!-- reality&#45;&gt;network -->
<g id="edge30" class="edge">
<title>reality&#45;&gt;network</title>
<path fill="none" stroke="#2b303a" d="M663.88,-486.78C682.38,-474.72 705.74,-459.51 725.58,-446.58"/>
<polygon fill="#2b303a" stroke="#2b303a" points="727.26,-449.67 733.73,-441.27 723.44,-443.8 727.26,-449.67"/>
</g>
<!-- material -->
<g id="node6" class="node">
<title>material</title>
<path fill="#d2d5dd" stroke="none" d="M971.57,-449C971.57,-449 863.04,-449 863.04,-449 857.04,-449 851.04,-443 851.04,-437 851.04,-437 851.04,-399.8 851.04,-399.8 851.04,-393.8 857.04,-387.8 863.04,-387.8 863.04,-387.8 971.57,-387.8 971.57,-387.8 977.57,-387.8 983.57,-393.8 983.57,-399.8 983.57,-399.8 983.57,-437 983.57,-437 983.57,-443 977.57,-449 971.57,-449"/>
<text text-anchor="middle" x="917.3" y="-422.6" font-family="Arial" font-size="14.00">Materials are not</text>
<text text-anchor="middle" x="917.3" y="-405.8" font-family="Arial" font-size="14.00">unbreakable</text>
</g>
<!-- reality&#45;&gt;material -->
<g id="edge31" class="edge">
<title>reality&#45;&gt;material</title>
<path fill="none" stroke="#2b303a" d="M666.4,-502.47C709.28,-495.09 783.6,-480.26 844.3,-457.6 847.55,-456.39 850.83,-455.06 854.12,-453.66"/>
<polygon fill="#2b303a" stroke="#2b303a" points="855.53,-456.86 863.21,-449.56 852.65,-450.48 855.53,-456.86"/>
</g>
<!-- careless&#45;&gt;physical -->
<!-- training -->
<g id="node19" class="node">
<title>training</title>
<path fill="#b9d6f2" stroke="none" d="M347.85,-341.7C347.85,-341.7 238.76,-341.7 238.76,-341.7 232.76,-341.7 226.76,-335.7 226.76,-329.7 226.76,-329.7 226.76,-309.1 226.76,-309.1 226.76,-303.1 232.76,-297.1 238.76,-297.1 238.76,-297.1 347.85,-297.1 347.85,-297.1 353.85,-297.1 359.85,-303.1 359.85,-309.1 359.85,-309.1 359.85,-329.7 359.85,-329.7 359.85,-335.7 353.85,-341.7 347.85,-341.7"/>
<text text-anchor="middle" x="293.3" y="-315.2" font-family="Arial" font-size="14.00">Security Training</text>
</g>
<!-- careless&#45;&gt;training -->
<g id="edge22" class="edge">
<title>careless&#45;&gt;training</title>
<path fill="none" stroke="#2b303a" d="M313.66,-396.35C310.22,-383.51 305.75,-366.85 301.88,-352.4"/>
<polygon fill="#2b303a" stroke="#2b303a" points="305.3,-351.62 299.33,-342.87 298.54,-353.43 305.3,-351.62"/>
</g>
<!-- physical&#45;&gt;software -->
<!-- exhaustive -->
<g id="node16" class="node">
<title>exhaustive</title>
<path fill="#ff92cc" stroke="none" d="M537.29,-251C537.29,-251 457.31,-251 457.31,-251 451.31,-251 445.31,-245 445.31,-239 445.31,-239 445.31,-201.8 445.31,-201.8 445.31,-195.8 451.31,-189.8 457.31,-189.8 457.31,-189.8 537.29,-189.8 537.29,-189.8 543.29,-189.8 549.29,-195.8 549.29,-201.8 549.29,-201.8 549.29,-239 549.29,-239 549.29,-245 543.29,-251 537.29,-251"/>
<text text-anchor="middle" x="497.3" y="-224.6" font-family="Arial" font-size="14.00">Brute force</text>
<text text-anchor="middle" x="497.3" y="-207.8" font-family="Arial" font-size="14.00">combination</text>
</g>
<!-- physical&#45;&gt;exhaustive -->
<g id="edge19" class="edge">
<title>physical&#45;&gt;exhaustive</title>
<path fill="none" stroke="#2b303a" d="M490.5,-388.06C491.87,-354.57 494.11,-299.59 495.65,-262.01"/>
<polygon fill="#2b303a" stroke="#2b303a" points="499.13,-262.59 496.04,-252.46 492.13,-262.3 499.13,-262.59"/>
</g>
<!-- software&#45;&gt;network -->
<!-- exploit -->
<g id="node17" class="node">
<title>exploit</title>
<path fill="#ff92cc" stroke="none" d="M668.23,-350C668.23,-350 590.38,-350 590.38,-350 584.38,-350 578.38,-344 578.38,-338 578.38,-338 578.38,-300.8 578.38,-300.8 578.38,-294.8 584.38,-288.8 590.38,-288.8 590.38,-288.8 668.23,-288.8 668.23,-288.8 674.23,-288.8 680.23,-294.8 680.23,-300.8 680.23,-300.8 680.23,-338 680.23,-338 680.23,-344 674.23,-350 668.23,-350"/>
<text text-anchor="middle" x="629.3" y="-323.6" font-family="Arial" font-size="14.00">Exploit</text>
<text text-anchor="middle" x="629.3" y="-306.8" font-family="Arial" font-size="14.00">vulnerability</text>
</g>
<!-- software&#45;&gt;exploit -->
<g id="edge20" class="edge">
<title>software&#45;&gt;exploit</title>
<path fill="none" stroke="#2b303a" d="M630.51,-379.06C630.39,-373.13 630.26,-366.98 630.14,-360.99"/>
<polygon fill="#2b303a" stroke="#2b303a" points="633.65,-361.22 629.94,-351.3 626.65,-361.37 633.65,-361.22"/>
</g>
<!-- network&#45;&gt;material -->
<!-- traffic -->
<g id="node10" class="node">
<title>traffic</title>
<path fill="#ff92cc" stroke="none" d="M821.85,-341.7C821.85,-341.7 712.76,-341.7 712.76,-341.7 706.76,-341.7 700.76,-335.7 700.76,-329.7 700.76,-329.7 700.76,-309.1 700.76,-309.1 700.76,-303.1 706.76,-297.1 712.76,-297.1 712.76,-297.1 821.85,-297.1 821.85,-297.1 827.85,-297.1 833.85,-303.1 833.85,-309.1 833.85,-309.1 833.85,-329.7 833.85,-329.7 833.85,-335.7 827.85,-341.7 821.85,-341.7"/>
<text text-anchor="middle" x="767.3" y="-315.2" font-family="Arial" font-size="14.00">Eavesdrop traffic</text>
</g>
<!-- network&#45;&gt;traffic -->
<g id="edge13" class="edge">
<title>network&#45;&gt;traffic</title>
<path fill="none" stroke="#2b303a" d="M767.3,-396.35C767.3,-383.64 767.3,-367.18 767.3,-352.83"/>
<polygon fill="#2b303a" stroke="#2b303a" points="770.8,-352.92 767.3,-342.92 763.8,-352.92 770.8,-352.92"/>
</g>
<!-- cut_safe -->
<g id="node14" class="node">
<title>cut_safe</title>
<path fill="#ff92cc" stroke="none" d="M962.98,-341.7C962.98,-341.7 871.63,-341.7 871.63,-341.7 865.63,-341.7 859.63,-335.7 859.63,-329.7 859.63,-329.7 859.63,-309.1 859.63,-309.1 859.63,-303.1 865.63,-297.1 871.63,-297.1 871.63,-297.1 962.98,-297.1 962.98,-297.1 968.98,-297.1 974.98,-303.1 974.98,-309.1 974.98,-309.1 974.98,-329.7 974.98,-329.7 974.98,-335.7 968.98,-341.7 962.98,-341.7"/>
<text text-anchor="middle" x="917.3" y="-315.2" font-family="Arial" font-size="14.00">Cut safe open</text>
</g>
<!-- material&#45;&gt;cut_safe -->
<g id="edge17" class="edge">
<title>material&#45;&gt;cut_safe</title>
<path fill="none" stroke="#2b303a" d="M917.3,-388.03C917.3,-376.94 917.3,-364.26 917.3,-352.9"/>
<polygon fill="#2b303a" stroke="#2b303a" points="920.8,-353.17 917.3,-343.17 913.8,-353.17 920.8,-353.17"/>
</g>
<!-- luck -->
<g id="node7" class="node">
<title>luck</title>
<path fill="#ff92cc" stroke="none" d="M174.29,-251C174.29,-251 94.31,-251 94.31,-251 88.31,-251 82.31,-245 82.31,-239 82.31,-239 82.31,-201.8 82.31,-201.8 82.31,-195.8 88.31,-189.8 94.31,-189.8 94.31,-189.8 174.29,-189.8 174.29,-189.8 180.29,-189.8 186.29,-195.8 186.29,-201.8 186.29,-201.8 186.29,-239 186.29,-239 186.29,-245 180.29,-251 174.29,-251"/>
<text text-anchor="middle" x="134.3" y="-224.6" font-family="Arial" font-size="14.00">Find written</text>
<text text-anchor="middle" x="134.3" y="-207.8" font-family="Arial" font-size="14.00">combination</text>
</g>
<!-- soleng -->
<g id="node8" class="node">
<title>soleng</title>
<path fill="#ff92cc" stroke="none" d="M349.18,-259.8C349.18,-259.8 237.42,-259.8 237.42,-259.8 231.42,-259.8 225.42,-253.8 225.42,-247.8 225.42,-247.8 225.42,-193 225.42,-193 225.42,-187 231.42,-181 237.42,-181 237.42,-181 349.18,-181 349.18,-181 355.18,-181 361.18,-187 361.18,-193 361.18,-193 361.18,-247.8 361.18,-247.8 361.18,-253.8 355.18,-259.8 349.18,-259.8"/>
<text text-anchor="middle" x="293.3" y="-233" font-family="Arial" font-size="14.00">Extract</text>
<text text-anchor="middle" x="293.3" y="-216.2" font-family="Arial" font-size="14.00">combination from</text>
<text text-anchor="middle" x="293.3" y="-199.4" font-family="Arial" font-size="14.00">target</text>
</g>
<!-- luck&#45;&gt;soleng -->
<!-- nopostit -->
<g id="node20" class="node">
<title>nopostit</title>
<path fill="#b9d6f2" stroke="none" d="M134.9,-143.7C134.9,-143.7 31.71,-143.7 31.71,-143.7 25.71,-143.7 19.71,-137.7 19.71,-131.7 19.71,-131.7 19.71,-111.1 19.71,-111.1 19.71,-105.1 25.71,-99.1 31.71,-99.1 31.71,-99.1 134.9,-99.1 134.9,-99.1 140.9,-99.1 146.9,-105.1 146.9,-111.1 146.9,-111.1 146.9,-131.7 146.9,-131.7 146.9,-137.7 140.9,-143.7 134.9,-143.7"/>
<text text-anchor="middle" x="83.3" y="-117.2" font-family="Arial" font-size="14.00">No post&#45;it policy</text>
</g>
<!-- luck&#45;&gt;nopostit -->
<g id="edge23" class="edge">
<title>luck&#45;&gt;nopostit</title>
<path fill="none" stroke="#2b303a" d="M118.86,-190.03C112.85,-178.59 105.94,-165.46 99.83,-153.83"/>
<polygon fill="#2b303a" stroke="#2b303a" points="102.94,-152.22 95.19,-145 96.74,-155.48 102.94,-152.22"/>
</g>
<!-- open_safe -->
<g id="node24" class="node">
<title>open_safe</title>
<path fill="#5f00c2" stroke="none" d="M551.26,-61.4C551.26,-61.4 459.35,-61.4 459.35,-61.4 453.35,-61.4 447.35,-55.4 447.35,-49.4 447.35,-49.4 447.35,-12.2 447.35,-12.2 447.35,-6.2 453.35,-0.2 459.35,-0.2 459.35,-0.2 551.26,-0.2 551.26,-0.2 557.26,-0.2 563.26,-6.2 563.26,-12.2 563.26,-12.2 563.26,-49.4 563.26,-49.4 563.26,-55.4 557.26,-61.4 551.26,-61.4"/>
<text text-anchor="middle" x="505.3" y="-35" font-family="Arial" font-size="14.00" fill="#ffffff">Open the safe</text>
<text text-anchor="middle" x="505.3" y="-18.2" font-family="Arial" font-size="14.00" fill="#ffffff">(attacker win)</text>
</g>
<!-- luck&#45;&gt;open_safe -->
<g id="edge5" class="edge">
<title>luck&#45;&gt;open_safe</title>
<path fill="none" stroke="#2b303a" d="M82.61,-204.82C56.66,-194.59 27.56,-178.02 12.3,-152.2 -1.62,-128.63 -5.87,-111.07 12.3,-90.6 39.98,-59.43 307.24,-41.8 436.27,-35.04"/>
<polygon fill="#2b303a" stroke="#2b303a" points="436.25,-38.54 446.06,-34.53 435.89,-31.55 436.25,-38.54"/>
</g>
<!-- eavesdrop -->
<g id="node9" class="node">
<title>eavesdrop</title>
<path fill="#ff92cc" stroke="none" d="M253.29,-152C253.29,-152 173.31,-152 173.31,-152 167.31,-152 161.31,-146 161.31,-140 161.31,-140 161.31,-102.8 161.31,-102.8 161.31,-96.8 167.31,-90.8 173.31,-90.8 173.31,-90.8 253.29,-90.8 253.29,-90.8 259.29,-90.8 265.29,-96.8 265.29,-102.8 265.29,-102.8 265.29,-140 265.29,-140 265.29,-146 259.29,-152 253.29,-152"/>
<text text-anchor="middle" x="213.3" y="-125.6" font-family="Arial" font-size="14.00">Eavesdrop</text>
<text text-anchor="middle" x="213.3" y="-108.8" font-family="Arial" font-size="14.00">combination</text>
</g>
<!-- soleng&#45;&gt;eavesdrop -->
<g id="edge12" class="edge">
<title>soleng&#45;&gt;eavesdrop</title>
<path fill="none" stroke="#2b303a" d="M261.69,-181.06C256.04,-174.21 250.15,-167.08 244.51,-160.24"/>
<polygon fill="#2b303a" stroke="#2b303a" points="247.56,-158.44 238.5,-152.95 242.16,-162.89 247.56,-158.44"/>
</g>
<!-- blackmail -->
<g id="node12" class="node">
<title>blackmail</title>
<path fill="#ff92cc" stroke="none" d="M393.35,-152C393.35,-152 291.26,-152 291.26,-152 285.26,-152 279.26,-146 279.26,-140 279.26,-140 279.26,-102.8 279.26,-102.8 279.26,-96.8 285.26,-90.8 291.26,-90.8 291.26,-90.8 393.35,-90.8 393.35,-90.8 399.35,-90.8 405.35,-96.8 405.35,-102.8 405.35,-102.8 405.35,-140 405.35,-140 405.35,-146 399.35,-152 393.35,-152"/>
<text text-anchor="middle" x="342.3" y="-125.6" font-family="Arial" font-size="14.00">Threaten or</text>
<text text-anchor="middle" x="342.3" y="-108.8" font-family="Arial" font-size="14.00">blackmail target</text>
</g>
<!-- soleng&#45;&gt;blackmail -->
<g id="edge15" class="edge">
<title>soleng&#45;&gt;blackmail</title>
<path fill="none" stroke="#2b303a" d="M312.67,-181.06C315.9,-174.67 319.26,-168.03 322.5,-161.61"/>
<polygon fill="#2b303a" stroke="#2b303a" points="325.39,-163.64 326.78,-153.13 319.15,-160.48 325.39,-163.64"/>
</g>
<!-- bribe -->
<g id="node13" class="node">
<title>bribe</title>
<path fill="#ff92cc" stroke="none" d="M507.68,-143.7C507.68,-143.7 430.93,-143.7 430.93,-143.7 424.93,-143.7 418.93,-137.7 418.93,-131.7 418.93,-131.7 418.93,-111.1 418.93,-111.1 418.93,-105.1 424.93,-99.1 430.93,-99.1 430.93,-99.1 507.68,-99.1 507.68,-99.1 513.68,-99.1 519.68,-105.1 519.68,-111.1 519.68,-111.1 519.68,-131.7 519.68,-131.7 519.68,-137.7 513.68,-143.7 507.68,-143.7"/>
<text text-anchor="middle" x="469.3" y="-117.2" font-family="Arial" font-size="14.00">Bribe target</text>
</g>
<!-- soleng&#45;&gt;bribe -->
<g id="edge16" class="edge">
<title>soleng&#45;&gt;bribe</title>
<path fill="none" stroke="#2b303a" d="M361.1,-182.04C381.03,-171.05 402.43,-159.25 420.9,-149.08"/>
<polygon fill="#2b303a" stroke="#2b303a" points="422.43,-152.23 429.5,-144.34 419.05,-146.1 422.43,-152.23"/>
</g>
<!-- eavesdrop&#45;&gt;blackmail -->
<!-- eavesdrop&#45;&gt;open_safe -->
<g id="edge4" class="edge">
<title>eavesdrop&#45;&gt;open_safe</title>
<path fill="none" stroke="#2b303a" d="M265.14,-93.44C267.55,-92.43 269.94,-91.48 272.3,-90.6 326.22,-70.46 389.68,-54.96 436.75,-44.93"/>
<polygon fill="#2b303a" stroke="#2b303a" points="437.19,-48.42 446.26,-42.94 435.75,-41.57 437.19,-48.42"/>
</g>
<!-- tls -->
<g id="node23" class="node">
<title>tls</title>
<path fill="#b9d6f2" stroke="none" d="M821.24,-251C821.24,-251 715.37,-251 715.37,-251 709.37,-251 703.37,-245 703.37,-239 703.37,-239 703.37,-201.8 703.37,-201.8 703.37,-195.8 709.37,-189.8 715.37,-189.8 715.37,-189.8 821.24,-189.8 821.24,-189.8 827.24,-189.8 833.24,-195.8 833.24,-201.8 833.24,-201.8 833.24,-239 833.24,-239 833.24,-245 827.24,-251 821.24,-251"/>
<text text-anchor="middle" x="768.3" y="-224.6" font-family="Arial" font-size="14.00">Deploy TLS with</text>
<text text-anchor="middle" x="768.3" y="-207.8" font-family="Arial" font-size="14.00">self&#45;signed cert</text>
</g>
<!-- traffic&#45;&gt;tls -->
<g id="edge26" class="edge">
<title>traffic&#45;&gt;tls</title>
<path fill="none" stroke="#2b303a" d="M767.52,-297.35C767.63,-287.05 767.76,-274.28 767.88,-262.17"/>
<polygon fill="#2b303a" stroke="#2b303a" points="771.38,-262.42 767.98,-252.38 764.38,-262.35 771.38,-262.42"/>
</g>
<!-- mitm -->
<g id="node11" class="node">
<title>mitm</title>
<path fill="#ff92cc" stroke="none" d="M827.62,-152C827.62,-152 710.98,-152 710.98,-152 704.98,-152 698.98,-146 698.98,-140 698.98,-140 698.98,-102.8 698.98,-102.8 698.98,-96.8 704.98,-90.8 710.98,-90.8 710.98,-90.8 827.62,-90.8 827.62,-90.8 833.62,-90.8 839.62,-96.8 839.62,-102.8 839.62,-102.8 839.62,-140 839.62,-140 839.62,-146 833.62,-152 827.62,-152"/>
<text text-anchor="middle" x="769.3" y="-125.6" font-family="Arial" font-size="14.00">Man&#45;in&#45;the&#45;middle</text>
<text text-anchor="middle" x="769.3" y="-108.8" font-family="Arial" font-size="14.00">attack</text>
</g>
<!-- mitm&#45;&gt;open_safe -->
<g id="edge8" class="edge">
<title>mitm&#45;&gt;open_safe</title>
<path fill="none" stroke="#2b303a" d="M699.29,-93.08C696.94,-92.24 694.6,-91.41 692.3,-90.6 653.3,-76.94 609.22,-63 573.66,-52.13"/>
<polygon fill="#2b303a" stroke="#2b303a" points="574.94,-48.87 564.36,-49.3 572.91,-55.56 574.94,-48.87"/>
</g>
<!-- blackmail&#45;&gt;bribe -->
<!-- blackmail&#45;&gt;open_safe -->
<g id="edge3" class="edge">
<title>blackmail&#45;&gt;open_safe</title>
<path fill="none" stroke="#2b303a" d="M396.58,-90.9C410.8,-83.17 426.27,-74.76 440.97,-66.77"/>
<polygon fill="#2b303a" stroke="#2b303a" points="442.54,-69.9 449.66,-62.05 439.2,-63.75 442.54,-69.9"/>
</g>
<!-- bribe&#45;&gt;open_safe -->
<g id="edge2" class="edge">
<title>bribe&#45;&gt;open_safe</title>
<path fill="none" stroke="#2b303a" d="M477.84,-99.4C481.19,-91.15 485.16,-81.39 489.02,-71.88"/>
<polygon fill="#2b303a" stroke="#2b303a" points="492.2,-73.35 492.72,-62.76 485.72,-70.71 492.2,-73.35"/>
</g>
<!-- harden -->
<g id="node21" class="node">
<title>harden</title>
<path fill="#b9d6f2" stroke="none" d="M972.4,-242.7C972.4,-242.7 862.2,-242.7 862.2,-242.7 856.2,-242.7 850.2,-236.7 850.2,-230.7 850.2,-230.7 850.2,-210.1 850.2,-210.1 850.2,-204.1 856.2,-198.1 862.2,-198.1 862.2,-198.1 972.4,-198.1 972.4,-198.1 978.4,-198.1 984.4,-204.1 984.4,-210.1 984.4,-210.1 984.4,-230.7 984.4,-230.7 984.4,-236.7 978.4,-242.7 972.4,-242.7"/>
<text text-anchor="middle" x="917.3" y="-216.2" font-family="Arial" font-size="14.00">Harden materials</text>
</g>
<!-- cut_safe&#45;&gt;harden -->
<g id="edge24" class="edge">
<title>cut_safe&#45;&gt;harden</title>
<path fill="none" stroke="#2b303a" d="M917.3,-297.35C917.3,-284.64 917.3,-268.18 917.3,-253.83"/>
<polygon fill="#2b303a" stroke="#2b303a" points="920.8,-253.92 917.3,-243.92 913.8,-253.92 920.8,-253.92"/>
</g>
<!-- budget -->
<g id="node15" class="node">
<title>budget</title>
<path fill="#ff92cc" stroke="none" d="M968.65,-152C968.65,-152 865.96,-152 865.96,-152 859.96,-152 853.96,-146 853.96,-140 853.96,-140 853.96,-102.8 853.96,-102.8 853.96,-96.8 859.96,-90.8 865.96,-90.8 865.96,-90.8 968.65,-90.8 968.65,-90.8 974.65,-90.8 980.65,-96.8 980.65,-102.8 980.65,-102.8 980.65,-140 980.65,-140 980.65,-146 974.65,-152 968.65,-152"/>
<text text-anchor="middle" x="917.3" y="-125.6" font-family="Arial" font-size="14.00">Increase tooling</text>
<text text-anchor="middle" x="917.3" y="-108.8" font-family="Arial" font-size="14.00">budget</text>
</g>
<!-- budget&#45;&gt;open_safe -->
<g id="edge1" class="edge">
<title>budget&#45;&gt;open_safe</title>
<path fill="none" stroke="#2b303a" d="M854.08,-93.03C851.47,-92.16 848.87,-91.35 846.3,-90.6 754.12,-63.69 644.11,-47.46 574.47,-39.06"/>
<polygon fill="#2b303a" stroke="#2b303a" points="575.07,-35.61 564.73,-37.91 574.25,-42.56 575.07,-35.61"/>
</g>
<!-- exhaustive&#45;&gt;open_safe -->
<g id="edge6" class="edge">
<title>exhaustive&#45;&gt;open_safe</title>
<path fill="none" stroke="#2b303a" d="M513.16,-189.82C518.45,-178.4 523.66,-165.02 526.3,-152.2 531.84,-125.39 530.98,-117.58 526.3,-90.6 525.24,-84.46 523.6,-78.11 521.68,-71.96"/>
<polygon fill="#2b303a" stroke="#2b303a" points="525.04,-70.95 518.51,-62.61 518.41,-73.21 525.04,-70.95"/>
</g>
<!-- static -->
<g id="node22" class="node">
<title>static</title>
<path fill="#b9d6f2" stroke="none" d="M673.29,-242.7C673.29,-242.7 579.32,-242.7 579.32,-242.7 573.32,-242.7 567.32,-236.7 567.32,-230.7 567.32,-230.7 567.32,-210.1 567.32,-210.1 567.32,-204.1 573.32,-198.1 579.32,-198.1 579.32,-198.1 673.29,-198.1 673.29,-198.1 679.29,-198.1 685.29,-204.1 685.29,-210.1 685.29,-210.1 685.29,-230.7 685.29,-230.7 685.29,-236.7 679.29,-242.7 673.29,-242.7"/>
<text text-anchor="middle" x="626.3" y="-216.2" font-family="Arial" font-size="14.00">Static analysis</text>
</g>
<!-- exploit&#45;&gt;static -->
<g id="edge25" class="edge">
<title>exploit&#45;&gt;static</title>
<path fill="none" stroke="#2b303a" d="M628.4,-289.03C628.05,-277.94 627.66,-265.26 627.31,-253.9"/>
<polygon fill="#2b303a" stroke="#2b303a" points="630.82,-254.06 627.01,-244.17 623.82,-254.28 630.82,-254.06"/>
</g>
<!-- 0day -->
<g id="node18" class="node">
<title>0day</title>
<path fill="#ff92cc" stroke="none" d="M673.18,-143.7C673.18,-143.7 575.42,-143.7 575.42,-143.7 569.42,-143.7 563.42,-137.7 563.42,-131.7 563.42,-131.7 563.42,-111.1 563.42,-111.1 563.42,-105.1 569.42,-99.1 575.42,-99.1 575.42,-99.1 673.18,-99.1 673.18,-99.1 679.18,-99.1 685.18,-105.1 685.18,-111.1 685.18,-111.1 685.18,-131.7 685.18,-131.7 685.18,-137.7 679.18,-143.7 673.18,-143.7"/>
<text text-anchor="middle" x="624.3" y="-117.2" font-family="Arial" font-size="14.00">Use 0&#45;day vuln</text>
</g>
<!-- 0day&#45;&gt;open_safe -->
<g id="edge7" class="edge">
<title>0day&#45;&gt;open_safe</title>
<path fill="none" stroke="#2b303a" d="M595.8,-99.18C583.28,-89.86 568.22,-78.64 554,-68.06"/>
<polygon fill="#2b303a" stroke="#2b303a" points="556.15,-65.29 546.04,-62.13 551.97,-70.91 556.15,-65.29"/>
</g>
<!-- training&#45;&gt;luck -->
<g id="edge9" class="edge">
<title>training&#45;&gt;luck</title>
<path fill="none" stroke="#2b303a" d="M258.41,-297.11C239.06,-285.31 214.5,-270.32 192.34,-256.81"/>
<polygon fill="#2b303a" stroke="#2b303a" points="194.34,-253.92 183.98,-251.7 190.69,-259.9 194.34,-253.92"/>
</g>
<!-- training&#45;&gt;soleng -->
<g id="edge10" class="edge">
<title>training&#45;&gt;soleng</title>
<path fill="none" stroke="#2b303a" d="M293.3,-297.35C293.3,-289.51 293.3,-280.24 293.3,-270.92"/>
<polygon fill="#2b303a" stroke="#2b303a" points="296.8,-271.13 293.3,-261.13 289.8,-271.13 296.8,-271.13"/>
</g>
<!-- nopostit&#45;&gt;soleng -->
<g id="edge11" class="edge">
<title>nopostit&#45;&gt;soleng</title>
<path fill="none" stroke="#7692ff" stroke-width="3" stroke-dasharray="1,5" d="M129.21,-143.6C154.92,-155.48 187.64,-170.59 217.09,-184.2"/>
<polygon fill="#7692ff" stroke="#7692ff" stroke-width="3" points="216.31,-185.76 221.58,-186.27 217.78,-182.59 216.31,-185.76"/>
</g>
<!-- nopostit&#45;&gt;open_safe -->
<!-- harden&#45;&gt;budget -->
<g id="edge18" class="edge">
<title>harden&#45;&gt;budget</title>
<path fill="none" stroke="#2b303a" d="M917.3,-198.35C917.3,-188.05 917.3,-175.28 917.3,-163.17"/>
<polygon fill="#2b303a" stroke="#2b303a" points="920.8,-163.38 917.3,-153.38 913.8,-163.38 920.8,-163.38"/>
</g>
<!-- static&#45;&gt;0day -->
<g id="edge21" class="edge">
<title>static&#45;&gt;0day</title>
<path fill="none" stroke="#2b303a" d="M625.87,-198.35C625.61,-185.64 625.27,-169.18 624.97,-154.83"/>
<polygon fill="#2b303a" stroke="#2b303a" points="628.47,-154.85 624.77,-144.92 621.48,-154.99 628.47,-154.85"/>
</g>
<!-- tls&#45;&gt;mitm -->
<g id="edge14" class="edge">
<title>tls&#45;&gt;mitm</title>
<path fill="none" stroke="#2b303a" d="M768.61,-190.03C768.7,-181.49 768.79,-172 768.89,-162.89"/>
<polygon fill="#2b303a" stroke="#2b303a" points="772.38,-163.22 768.99,-153.18 765.38,-163.14 772.38,-163.22"/>
</g>
</g>
</svg>
